<svg xmlns="http://www.w3.org/2000/svg" shape-rendering="geometricPrecision" text-rendering="geometricPrecision" image-rendering="optimizeQuality" fill-rule="evenodd" clip-rule="evenodd" viewBox="0 0 508 511.679"><path fill="#23292C" fill-rule="nonzero" d="M173.829 444.076a7.56 7.56 0 01-2.267 1.177l-159.231 65.79a7.595 7.595 0 01-1.611.464l.003.013c-6.57 1.126-11.592-3.87-10.596-10.417a7.623 7.623 0 01.511-1.826L62.89 336.056c.215-.564.49-1.088.814-1.567a7.634 7.634 0 011-1.231L302.469 95.493a20.48 20.48 0 01-1.178-6.851c0-11.253 9.121-20.362 20.36-20.362 2.32 0 4.64.394 6.852 1.179l60.605-60.605C395.01 2.952 402.782 0 410.546 0c7.765 0 15.536 2.952 21.439 8.854l67.162 67.162C505.049 81.917 508 89.689 508 97.454c0 7.765-2.952 15.537-8.853 21.439l-60.605 60.605a20.512 20.512 0 011.177 6.851c0 5.216-1.984 10.438-5.953 14.407-3.968 3.969-9.191 5.953-14.406 5.953a20.49 20.49 0 01-6.852-1.178L174.742 443.297a7.588 7.588 0 01-.913.779zm161.27-370.742c-.296-.259-.598-.525 0 0z"/><path fill="#F49189" d="M405.747 201.51L174.641 432.615l-.015-.015L75.4 333.377l-.017-.016 231.108-231.107c.243.269.493.535.753.794l97.708 97.709c.26.259.525.51.795.753z"/><path fill="#CF706B" d="M405.747 201.51L174.641 432.615l-.015-.015-25.345-25.345 231.084-231.086 24.587 24.588c.26.259.525.51.795.753z"/><path fill="#F34758" d="M426.594 14.246l67.162 67.161c8.825 8.826 8.824 23.269 0 32.094l-59.237 59.236c-.242-.27-.493-.535-.753-.795l-97.708-97.708a20.775 20.775 0 00-.794-.753l59.235-59.235c8.826-8.827 23.268-8.827 32.095 0z"/><path fill="#C63B4A" d="M484.441 72.093l9.315 9.314c8.825 8.826 8.824 23.269 0 32.094l-59.237 59.236c-.242-.27-.493-.535-.753-.795l-24.587-24.587 75.262-75.262z"/><path fill="#fff" d="M330.667 79.625l97.708 97.709c4.958 4.959 4.958 13.073 0 18.031h-.001c-4.957 4.958-13.073 4.958-18.03 0l-97.709-97.708c-4.957-4.958-4.958-13.073 0-18.031v-.001c4.959-4.958 13.073-4.958 18.032 0z"/><path fill="#B26A64" fill-rule="nonzero" d="M330.66 163.296a4.574 4.574 0 116.47 6.47L138.578 368.317a4.574 4.574 0 11-6.47-6.47L330.66 163.296z"/><path fill="#ECE8E3" d="M70.01 338.766l99.224 99.225L9.442 504.014c-1.453.248-1.993-.37-1.779-1.779L70.01 338.766z"/><path fill="#D4C8C1" d="M121.918 390.675l47.316 47.316L9.442 504.014c-.35.06-.646.069-.892.029l113.368-113.368z"/><path fill="#202E3B" d="M77.663 475.827L9.442 504.014c-1.453.248-1.993-.37-1.779-1.779l26.618-69.79 43.382 43.382z"/><path fill="#1A2530" d="M77.663 475.827L9.442 504.014c-.35.06-.646.069-.892.029l48.665-48.664 20.448 20.448z"/></svg>